<svg width="18" height="18" viewBox="0 0 18 18" fill="none" xmlns="http://www.w3.org/2000/svg">
<path d="M12.4243 0.774658C13.6508 0.774658 14.827 1.26188 15.6943 2.12915C16.5615 2.99641 17.0488 4.17268 17.0488 5.39917V12.7984C17.0488 14.0249 16.5615 15.2012 15.6943 16.0684C14.827 16.9357 13.6508 17.4229 12.4243 17.4229H5.02503C3.79853 17.4229 2.62227 16.9357 1.755 16.0684C0.887737 15.2012 0.400513 14.0249 0.400513 12.7984V5.39917C0.400513 4.17268 0.887737 2.99641 1.755 2.12915C2.62227 1.26188 3.79853 0.774658 5.02503 0.774658H12.4243ZM8.72464 5.39917C7.74344 5.39917 6.80243 5.78895 6.10862 6.48277C5.41481 7.17658 5.02503 8.11759 5.02503 9.09879C5.02503 10.08 5.41481 11.021 6.10862 11.7148C6.80243 12.4086 7.74344 12.7984 8.72464 12.7984C9.70584 12.7984 10.6469 12.4086 11.3407 11.7148C12.0345 11.021 12.4243 10.08 12.4243 9.09879C12.4243 8.11759 12.0345 7.17658 11.3407 6.48277C10.6469 5.78895 9.70584 5.39917 8.72464 5.39917ZM8.72464 7.24898C9.21524 7.24898 9.68575 7.44387 10.0327 7.79078C10.3796 8.13768 10.5744 8.60819 10.5744 9.09879C10.5744 9.58939 10.3796 10.0599 10.0327 10.4068C9.68575 10.7537 9.21524 10.9486 8.72464 10.9486C8.23404 10.9486 7.76354 10.7537 7.41663 10.4068C7.06973 10.0599 6.87484 9.58939 6.87484 9.09879C6.87484 8.60819 7.06973 8.13768 7.41663 7.79078C7.76354 7.44387 8.23404 7.24898 8.72464 7.24898ZM12.8867 4.01182C12.6414 4.01182 12.4062 4.10926 12.2327 4.28272C12.0592 4.45617 11.9618 4.69142 11.9618 4.93672C11.9618 5.18202 12.0592 5.41728 12.2327 5.59073C12.4062 5.76418 12.6414 5.86163 12.8867 5.86163C13.132 5.86163 13.3673 5.76418 13.5407 5.59073C13.7142 5.41728 13.8116 5.18202 13.8116 4.93672C13.8116 4.69142 13.7142 4.45617 13.5407 4.28272C13.3673 4.10926 13.132 4.01182 12.8867 4.01182Z" fill="white"/>
</svg>
