<svg width="19" height="19" viewBox="0 0 19 19" fill="none" xmlns="http://www.w3.org/2000/svg">
<path d="M16.8091 0.890381H2.06841C1.34583 0.890381 0.767761 1.46845 0.767761 2.11877V16.9317C0.767761 17.582 1.34583 18.1601 2.06841 18.1601H16.8091C17.5316 18.1601 18.1097 17.582 18.1097 16.9317V2.11877C18.1097 1.46845 17.5316 0.890381 16.8091 0.890381ZM5.89808 15.631H3.36905V7.39361H5.89808V15.631ZM4.6697 6.23748C3.87486 6.23748 3.15228 5.58716 3.15228 4.72006C3.15228 3.85296 3.8026 3.20264 4.6697 3.20264C5.46454 3.20264 6.18712 3.85296 6.18712 4.72006C6.18712 5.58716 5.46454 6.23748 4.6697 6.23748ZM15.5807 15.5588H13.0516V11.5123C13.0516 10.573 13.0516 9.27232 11.6787 9.27232C10.3058 9.27232 10.1613 10.3562 10.1613 11.3678V15.4865H7.63228V7.39361H10.0168V8.47748H10.0891C10.4503 7.82716 11.3174 7.10457 12.5458 7.10457C15.1471 7.10457 15.6529 8.83877 15.6529 11.0788V15.5588H15.5807Z" fill="white"/>
</svg>
