<svg width="21" height="17" viewBox="0 0 21 17" fill="none" xmlns="http://www.w3.org/2000/svg">
<path d="M20.0246 2.54951C19.3124 2.87323 18.5447 3.08596 17.7493 3.1877C18.5632 2.6975 19.1922 1.92058 19.4881 0.986427C18.7205 1.44888 17.8695 1.77259 16.9724 1.95758C16.2417 1.16216 15.2151 0.699707 14.0497 0.699707C11.8762 0.699707 10.1004 2.47552 10.1004 4.66754C10.1004 4.98201 10.1374 5.28723 10.2021 5.57395C6.90945 5.40746 3.9775 3.82588 2.02596 1.43038C1.68374 2.01307 1.48951 2.6975 1.48951 3.41892C1.48951 4.79703 2.18319 6.0179 3.25608 6.71158C2.5994 6.71158 1.98896 6.5266 1.45252 6.24913V6.27687C1.45252 8.20067 2.82137 9.81 4.63418 10.1707C4.05217 10.33 3.44115 10.3522 2.84912 10.2355C3.10033 11.0239 3.59231 11.7138 4.25591 12.2082C4.91951 12.7026 5.72136 12.9766 6.54873 12.9917C5.14624 14.102 3.40776 14.7021 1.619 14.6935C1.30453 14.6935 0.990065 14.675 0.675598 14.638C2.43291 15.7664 4.5232 16.4231 6.76146 16.4231C14.0497 16.4231 18.0545 10.3742 18.0545 5.12999C18.0545 4.95426 18.0545 4.78778 18.0453 4.61205C18.8222 4.05711 19.4881 3.35418 20.0246 2.54951Z" fill="white"/>
</svg>
